<svg xmlns="http://www.w3.org/2000/svg" viewBox="0 0 2400 1040" width="2400" height="1040" role="img" aria-label="Won supplement range">
    
    <defs>
      <linearGradient id="sx" x1="0" y1="0" x2="1" y2="0">
        <stop offset="0" stop-color="#000" stop-opacity="0.42"/>
        <stop offset="0.42" stop-color="#000" stop-opacity="0.12"/>
        <stop offset="0.65" stop-color="#000" stop-opacity="0"/>
      </linearGradient>
      <linearGradient id="sy" x1="0" y1="0" x2="0" y2="1">
        <stop offset="0.4" stop-color="#000" stop-opacity="0"/>
        <stop offset="1" stop-color="#000" stop-opacity="0.42"/>
      </linearGradient>
      <radialGradient id="key">
        <stop offset="0" stop-color="#fff" stop-opacity="0.16"/>
        <stop offset="1" stop-color="#fff" stop-opacity="0"/>
      </radialGradient>
    </defs>
    <rect width="2400" height="1040" fill="#20252c"/>
    <rect y="880" width="2400" height="160" fill="#1a1e24"/>
    
    <ellipse cx="1790" cy="640" rx="760" ry="608" fill="url(#key)"/>
    <svg xmlns="http://www.w3.org/2000/svg" viewBox="0 0 600 700" x="1304" y="466" width="372" height="434" opacity="0.55">
    <ellipse cx="300" cy="600.6" rx="132.48" ry="11.200000000000001" fill="#4c7539" fill-opacity="0.16"/>
    <rect x="231" y="76.5" width="138" height="24.500000000000004" rx="2" fill="#4c7539"/>
    <path d="M162,531.32
             V132.6
             L222.72,105
             H377.28
             L438,132.6
             V531.32
             Q438,581 388.32,581
             H211.68
             Q162,581 162,531.32 Z" fill="#5f8f4a"/>
    <path d="M366.24,110.52
             L438,132.6
             V531.32
             Q438,581 388.32,581
             H366.24 Z" fill="#4c7539"/>
    
  <g>
    <rect x="184.08" y="238.28000000000003" width="231.84" height="190.40000000000003" rx="6" fill="#ffffff"/>
    <text x="300" y="287.78400000000005" text-anchor="middle" font-family="Helvetica Neue, Helvetica, Arial, sans-serif"
          font-size="24.752000000000006" font-weight="700" letter-spacing="14.280000000000003" fill="#14171c">WON</text>
    <rect x="253.632" y="304.9200000000001" width="92.736" height="3.4272000000000005" fill="#456b36"/>
    <text x="300" y="354.42400000000004" text-anchor="middle" font-family="Helvetica Neue, Helvetica, Arial, sans-serif"
          font-size="43.79200000000001" font-weight="800" fill="#14171c">Greens</text>
    <rect x="235.08479999999997" y="373.46400000000006" width="129.83040000000003" height="32.36800000000001" rx="16.184000000000005"
                 fill="#456b36" fill-opacity="0.14"/>
           <text x="300" y="395.36" text-anchor="middle" font-family="Helvetica Neue, Helvetica, Arial, sans-serif"
                 font-size="19.040000000000003" font-weight="700" letter-spacing="3.8080000000000007" fill="#456b36">DETOX</text>
  </g>
  </svg><svg xmlns="http://www.w3.org/2000/svg" viewBox="0 0 600 700" x="1520" y="270" width="540" height="630" opacity="1">
    <ellipse cx="300" cy="593.6" rx="143.52" ry="11.200000000000001" fill="#1e242c" fill-opacity="0.16"/>
    <rect x="134.64" y="49" width="330.72" height="71" rx="10.799999999999999" fill="#171c23"/>
    <path d="M392.6016,49 H454.56 A10.799999999999999,10.799999999999999 0 0 1 465.36,59.8
           V109.2 A10.799999999999999,10.799999999999999 0 0 1 454.56,120 H392.6016 Z" fill="#1e242c"/>
    <rect x="144" y="112" width="312" height="462" rx="24" fill="#2b323c"/>
    <path d="M374.88,112 H432 A24,24 0 0 1 456,136
           V550 A24,24 0 0 1 432,574 H374.88 Z" fill="#1e242c"/>
    
  <g>
    <rect x="172.07999999999998" y="222.88" width="255.83999999999997" height="203.28" rx="6" fill="#ffffff"/>
    <text x="300" y="275.7328" text-anchor="middle" font-family="Helvetica Neue, Helvetica, Arial, sans-serif"
          font-size="26.4264" font-weight="700" letter-spacing="15.245999999999999" fill="#14171c">WON</text>
    <rect x="248.832" y="294.028" width="102.336" height="3.6590399999999996" fill="#ff5a3c"/>
    <text x="300" y="346.8808" text-anchor="middle" font-family="Helvetica Neue, Helvetica, Arial, sans-serif"
          font-size="46.754400000000004" font-weight="800" fill="#14171c">Kreatin</text>
    <rect x="228.3648" y="367.2088" width="143.2704" height="34.5576" rx="17.2788"
                 fill="#ff5a3c" fill-opacity="0.14"/>
           <text x="300" y="390.586" text-anchor="middle" font-family="Helvetica Neue, Helvetica, Arial, sans-serif"
                 font-size="20.328000000000003" font-weight="700" letter-spacing="4.0656" fill="#ff5a3c">MONOHYDRÁT</text>
  </g>
  </svg><svg xmlns="http://www.w3.org/2000/svg" viewBox="0 0 600 700" x="1870" y="410.00000000000006" width="420" height="489.99999999999994" opacity="0.9">
    <ellipse cx="300" cy="593.6" rx="143.52" ry="11.200000000000001" fill="#c2452d" fill-opacity="0.16"/>
    <rect x="134.64" y="49" width="330.72" height="71" rx="10.799999999999999" fill="#b8402a"/>
    <path d="M392.6016,49 H454.56 A10.799999999999999,10.799999999999999 0 0 1 465.36,59.8
           V109.2 A10.799999999999999,10.799999999999999 0 0 1 454.56,120 H392.6016 Z" fill="#c2452d"/>
    <rect x="144" y="112" width="312" height="462" rx="24" fill="#e8563a"/>
    <path d="M374.88,112 H432 A24,24 0 0 1 456,136
           V550 A24,24 0 0 1 432,574 H374.88 Z" fill="#c2452d"/>
    
  <g>
    <rect x="172.07999999999998" y="222.88" width="255.83999999999997" height="203.28" rx="6" fill="#ffffff"/>
    <text x="300" y="275.7328" text-anchor="middle" font-family="Helvetica Neue, Helvetica, Arial, sans-serif"
          font-size="26.4264" font-weight="700" letter-spacing="15.245999999999999" fill="#14171c">WON</text>
    <rect x="248.832" y="294.028" width="102.336" height="3.6590399999999996" fill="#b8402a"/>
    <text x="300" y="346.8808" text-anchor="middle" font-family="Helvetica Neue, Helvetica, Arial, sans-serif"
          font-size="46.754400000000004" font-weight="800" fill="#14171c">BCAA</text>
    <rect x="228.3648" y="367.2088" width="143.2704" height="34.5576" rx="17.2788"
                 fill="#b8402a" fill-opacity="0.14"/>
           <text x="300" y="390.586" text-anchor="middle" font-family="Helvetica Neue, Helvetica, Arial, sans-serif"
                 font-size="20.328000000000003" font-weight="700" letter-spacing="4.0656" fill="#b8402a">RECOVERY</text>
  </g>
  </svg>
    <rect width="2400" height="1040" fill="url(#sx)"/><rect width="2400" height="1040" fill="url(#sy)"/>
  </svg>